<svg width="22" height="12" viewBox="0 0 22 12" fill="none" xmlns="http://www.w3.org/2000/svg">
<path d="M1.22634 11.3961V10.3673H20.7737V11.3961H1.22634ZM1.77675 5.25103L0.992798 4.7963L1.9856 3.05453H0V2.14506H1.9856L0.992798 0.455762L1.77675 0L2.76955 1.69033L3.76337 0L4.5463 0.455762L3.5535 2.14506H5.53909V3.05453H3.5535L4.5463 4.7963L3.76235 5.25103L2.76955 3.51029L1.77675 5.25103ZM10.0072 5.25103L9.22325 4.7963L10.2171 3.05453H8.23045V2.14506H10.216L9.22325 0.455762L10.0072 0L11 1.69033L11.9938 0L12.7767 0.455762L11.7839 2.14506H13.7695V3.05453H11.7839L12.7767 4.7963L11.9928 5.25103L11 3.51029L10.0072 5.25103ZM18.2377 5.25103L17.4537 4.7963L18.4475 3.05453H16.4609V2.14506H18.4465L17.4537 0.455762L18.2377 0L19.2304 1.69033L20.2243 0L21.0072 0.455762L20.0144 2.14506H22V3.05453H20.0144L21.0072 4.7963L20.2232 5.25103L19.2304 3.51029L18.2377 5.25103Z" fill="#003049"/>
</svg>
